<svg width="20" height="16" viewBox="0 0 20 16" fill="none" xmlns="http://www.w3.org/2000/svg">
<path d="M0 9.5C0 11.9844 2.01562 14 4.5 14H16C18.2094 14 20 12.2094 20 10C20 8.06562 18.625 6.45 16.8 6.08125C16.9281 5.74688 17 5.38125 17 5C17 3.34375 15.6562 2 14 2C13.3844 2 12.8094 2.1875 12.3344 2.50625C11.4688 1.00625 9.85312 0 8 0C5.2375 0 3 2.2375 3 5C3 5.08438 3.00312 5.16875 3.00625 5.25313C1.25625 5.86875 0 7.5375 0 9.5Z" fill="black"/>
<circle cx="6" cy="10" r="1" fill="white"/>
<circle cx="10" cy="10" r="1" fill="white"/>
<circle cx="14" cy="10" r="1" fill="white"/>
</svg>
